<?xml version="1.0" ?><svg height="512px" version="1.1" viewBox="0 0 512 512" width="512px" xmlns="http://www.w3.org/2000/svg" xmlns:xlink="http://www.w3.org/1999/xlink"><title/><desc/><defs/><g fill="none" fill-rule="evenodd" id="SVG" stroke="none" stroke-width="1"><g id="Orange"><g><path d="M494.949161,257.760041 C494.949161,389.124613 388.453161,495.620613 257.08859,495.620613 C125.724018,495.620613 19.2426469,389.124613 19.2426469,257.760041 C19.2426469,126.39547 125.724018,57.1438126 257.08859,57.1438126 C388.453161,57.1438126 494.949161,126.39547 494.949161,257.760041" fill="#F47C4A" id="Fill-1"/><path d="M334.45179,66.1038126 C404.18619,96.5312412 451.056133,156.113413 451.056133,243.138784 C451.056133,374.488727 344.574761,480.984727 213.21019,480.984727 C194.968361,480.984727 177.282418,478.746555 160.210875,474.855355 C189.833733,488.094213 222.557847,495.613298 257.095904,495.613298 C388.460475,495.613298 494.941847,389.117298 494.941847,257.767355 C494.941847,153.524155 427.782075,88.5586698 334.45179,66.1038126" fill="#DD5B36" id="Fill-3"/><path d="M257.09883,71.7753098 C154.113687,71.7753098 33.8668298,120.488453 33.8668298,257.762967 C33.8668298,380.847767 134.01403,480.994967 257.09883,480.994967 C380.18363,480.994967 480.316201,380.847767 480.316201,257.762967 C480.316201,120.488453 360.069344,71.7753098 257.09883,71.7753098 M257.09883,510.25211 C117.878715,510.25211 4.6096869,396.968453 4.6096869,257.762967 C4.6096869,129.01691 106.073458,42.5181669 257.09883,42.5181669 C408.109573,42.5181669 509.573344,129.01691 509.573344,257.762967 C509.573344,396.968453 396.318944,510.25211 257.09883,510.25211" fill="#454849" id="Fill-5"/><path d="M257.09883,215.375218 C199.55003,215.375218 175.222715,185.474418 174.213344,184.187104 C169.210373,177.867561 170.278258,168.66619 176.61243,163.64859 C182.946601,158.63099 192.162601,159.698875 197.165573,166.047675 C197.721458,166.705961 214.588201,186.118075 257.09883,186.118075 C299.609458,186.118075 316.476201,166.705961 317.163744,165.872133 C322.313001,159.75739 331.470487,158.806533 337.673001,163.868018 C343.860887,168.929504 344.928773,177.926075 339.969687,184.187104 C338.960315,185.474418 314.633001,215.375218 257.09883,215.375218" fill="#454849" id="Fill-8"/><path d="M257.076887,215.36059 C250.830487,215.36059 245.06683,211.352361 243.12123,205.062075 C241.702258,200.454075 209.22683,91.1932755 296.500887,8.61498976 C302.366944,3.05613261 311.62683,3.3194469 317.185687,9.18550404 C322.729915,15.0661898 322.48123,24.3114469 316.600544,29.870304 C242.784773,99.707104 269.891515,192.540018 271.091058,196.460475 C273.43163,204.169733 269.086944,212.347104 261.377687,214.716933 C259.944087,215.15579 258.495858,215.36059 257.076887,215.36059" fill="#454849" id="Fill-10"/><path d="M89.3149669,41.4356526 C250.551081,-9.47177596 242.944224,121.33691 242.944224,121.33691 C242.944224,121.33691 140.222395,202.671767 89.3149669,41.4356526" fill="#3BB777" id="Fill-12"/><path d="M89.3149669,41.4356526 L242.944224,121.33691 C242.944224,121.33691 140.222395,202.671767 89.3149669,41.4356526" fill="#229857" id="Fill-14"/><path d="M108.105367,51.2031498 C123.362967,92.4996069 143.50651,117.221893 168.08251,124.755607 C193.199767,132.50875 217.527081,120.352407 228.205938,113.711035 C227.445253,101.130464 223.319995,73.9652069 202.605938,57.9615498 C182.301481,42.2650926 150.557481,40.0122926 108.105367,51.2031498 M184.788338,156.484978 C176.669481,156.484978 168.170281,155.387835 159.510167,152.725435 C122.485253,141.373664 94.1643383,105.416635 75.366624,45.834464 C74.1963383,42.1334355 74.547424,38.1105783 76.3321098,34.6874926 C78.131424,31.2497783 81.2180526,28.6458926 84.9044526,27.4756069 C144.486624,8.69252118 190.186281,11.2086355 220.745367,34.9946926 C260.34491,65.8317212 257.68251,119.884293 257.550853,122.195607 C257.302167,126.350121 255.298053,130.197435 252.021253,132.801321 C250.543767,133.956978 221.593824,156.484978 184.788338,156.484978" fill="#454849" id="Fill-16"/><path d="M204.14779,273.374578 C146.350304,273.374578 115.718075,232.151264 114.401504,230.337321 C110.846761,225.43675 111.929275,218.57595 116.829847,215.021207 C121.71579,211.466464 128.547333,212.53435 132.131333,217.405664 C133.213847,218.868521 159.311218,253.143264 208.55099,251.34395 C214.680361,250.597893 219.727218,255.776407 219.990533,261.832635 C220.253847,267.874235 215.558075,273.008864 209.516475,273.25755 C207.702533,273.345321 205.903218,273.374578 204.14779,273.374578" fill="#FEFEFE" id="Fill-18"/><path d="M112.938647,176.98107 C118.980247,182.10107 119.740933,191.156155 114.606304,197.197755 C109.486304,203.253984 100.431218,204.000041 94.3896183,198.880041 C88.3480183,193.760041 87.5873326,184.704955 92.7219612,178.648727 C97.8419612,172.607127 106.897047,171.86107 112.938647,176.98107" fill="#FEFEFE" id="Fill-20"/></g></g></g></svg>