<svg width="758" height="758" xmlns="http://www.w3.org/2000/svg" xmlns:xlink="http://www.w3.org/1999/xlink" overflow="hidden"><g transform="translate(-261 19)"><rect x="262" y="-18" width="756" height="756" fill="#032E9F"/><path d="M411.778 571C410.333 571 408.889 571 407.444 569.529 395.889 557.765 395.889 557.765 395.889 557.765 393 556.294 393 551.882 395.889 548.941 398.778 546 403.111 546 404.556 548.941 416.111 560.706 416.111 560.706 416.111 560.706 419 563.647 419 566.588 416.111 569.529 414.667 571 413.222 571 411.778 571Z" fill="#FFA000" fill-rule="evenodd"/><path d="M439.353 571C437.882 571 434.941 571 434.941 569.529 432 566.588 432 563.647 434.941 560.706 445.235 548.941 445.235 548.941 445.235 548.941 448.176 546 452.588 546 454.059 548.941 457 551.882 457 556.294 454.059 557.765 443.765 569.529 443.765 569.529 443.765 569.529 442.294 571 440.824 571 439.353 571Z" fill="#FFA000" fill-rule="evenodd"/><path d="M449.647 609C448.176 609 446.706 607.588 445.235 606.176 434.941 596.294 434.941 596.294 434.941 596.294 432 593.471 432 589.235 434.941 586.412 436.412 585 440.824 585 443.765 586.412 454.059 597.706 454.059 597.706 454.059 597.706 457 600.529 457 604.765 454.059 606.176 454.059 607.588 451.118 609 449.647 609Z" fill="#FFA000" fill-rule="evenodd"/><path d="M400.222 609C398.778 609 397.333 607.588 395.889 606.176 393 604.765 393 600.529 395.889 597.706 407.444 586.412 407.444 586.412 407.444 586.412 410.333 585 413.222 585 416.111 586.412 419 589.235 419 593.471 416.111 596.294 404.556 606.176 404.556 606.176 404.556 606.176 404.556 607.588 401.667 609 400.222 609Z" fill="#FFA000" fill-rule="evenodd"/><path d="M860.778 129C859.333 129 857.889 129 856.444 127.588 844.889 116.294 844.889 116.294 844.889 116.294 842 114.882 842 110.647 844.889 107.824 847.778 105 852.111 105 853.556 107.824 865.111 119.118 865.111 119.118 865.111 119.118 868 121.941 868 124.765 865.111 127.588 863.667 129 862.222 129 860.778 129Z" fill="#F06292" fill-rule="evenodd"/><path d="M888.059 129C885.235 129 883.824 129 882.412 127.588 881 124.765 881 121.941 882.412 119.118 893.706 107.824 893.706 107.824 893.706 107.824 896.529 105 900.765 105 902.176 107.824 905 110.647 905 114.882 902.176 116.294 892.294 127.588 892.294 127.588 892.294 127.588 890.882 129 889.471 129 888.059 129Z" fill="#F06292" fill-rule="evenodd"/><path d="M897.941 168C896.529 168 895.118 166.588 893.706 165.176 882.412 155.294 882.412 155.294 882.412 155.294 881 152.471 881 148.235 882.412 145.412 885.235 144 889.471 144 892.294 145.412 902.176 156.706 902.176 156.706 902.176 156.706 905 159.529 905 163.765 902.176 165.176 900.765 166.588 899.353 168 897.941 168Z" fill="#F06292" fill-rule="evenodd"/><path d="M849.222 168C847.778 168 846.333 166.588 844.889 165.176 842 163.765 842 159.529 844.889 156.706 856.444 145.412 856.444 145.412 856.444 145.412 857.889 144 862.222 144 865.111 145.412 868 148.235 868 152.471 865.111 155.294 853.556 165.176 853.556 165.176 853.556 165.176 852.111 166.588 850.667 168 849.222 168Z" fill="#F06292" fill-rule="evenodd"/><path d="M482.386 510.319C567.21 593 703.79 593 787.176 510.319 872 426.213 872 290.787 787.176 208.106 703.79 124 567.21 124 482.386 208.106 399 290.787 399 426.213 482.386 510.319M649.158 344.957C657.784 352.085 657.784 364.915 649.158 373.468 641.97 380.596 629.03 380.596 620.404 373.468 613.216 364.915 613.216 352.085 620.404 344.957 629.03 336.404 641.97 336.404 649.158 344.957" fill="#424242" fill-rule="evenodd"/><path d="M787 509.333C787 511 787 511 787 511 787 511 787 511 787 509.333M787 509.333C787 509.333 787 509.333 787 509.333 787 509.333 787 509.333 787 509.333M788.5 509.333C788.5 509.333 788.5 509.333 787 509.333 788.5 509.333 788.5 509.333 788.5 509.333M788.5 509.333C788.5 509.333 788.5 509.333 788.5 509.333 788.5 509.333 788.5 509.333 788.5 509.333M788.5 509.333C788.5 509.333 788.5 509.333 788.5 509.333 788.5 509.333 788.5 509.333 788.5 509.333M788.5 509.333C788.5 509.333 788.5 509.333 788.5 509.333 788.5 509.333 788.5 509.333 788.5 509.333M788.5 507.667C788.5 507.667 788.5 509.333 788.5 509.333 788.5 509.333 788.5 507.667 788.5 507.667M788.5 507.667C788.5 507.667 788.5 507.667 788.5 507.667 788.5 507.667 788.5 507.667 788.5 507.667M790 507.667C790 507.667 790 507.667 790 507.667 790 507.667 790 507.667 790 507.667M790 507.667C790 507.667 790 507.667 790 507.667 790 507.667 790 507.667 790 507.667M790 507.667C790 507.667 790 507.667 790 507.667 790 507.667 790 507.667 790 507.667M790 507.667C790 507.667 790 507.667 790 507.667 790 507.667 790 507.667 790 507.667M790 506C790 506 790 506 790 506 790 506 790 506 790 506M790 506C790 506 790 506 790 506 790 506 790 506 790 506" fill="#D3D3D3" fill-rule="evenodd"/><path d="M840.976 292C845.293 359.143 820.829 429.143 766.146 484.857 766.146 484.857 766.146 484.857 766.146 484.857 767.585 486.286 767.585 487.714 766.146 489.143 751.756 503.429 735.927 514.857 717.219 523.429 676.927 549.143 630.878 563.429 586.268 563.429 580.512 563.429 574.756 562 569 562 590.585 569.143 613.61 572 635.195 572 691.317 572 746 552 787.732 510.571 787.732 510.571 787.732 510.571 787.732 510.571 787.732 510.571 787.732 510.571 787.732 509.143 787.732 509.143 787.732 509.143 787.732 509.143 787.732 509.143 787.732 509.143 787.732 509.143 787.732 509.143 787.732 509.143 787.732 509.143 789.171 509.143 789.171 509.143 789.171 509.143 789.171 509.143 789.171 509.143 789.171 509.143 789.171 509.143 789.171 509.143 789.171 509.143 789.171 509.143 789.171 509.143 789.171 509.143 789.171 509.143 789.171 509.143 789.171 509.143 789.171 509.143 789.171 509.143 789.171 509.143 789.171 509.143 789.171 509.143 789.171 509.143 789.171 509.143 789.171 509.143 789.171 509.143 789.171 509.143 789.171 507.714 789.171 507.714 789.171 507.714 789.171 507.714 789.171 507.714 789.171 507.714 789.171 507.714 789.171 507.714 789.171 507.714 790.61 507.714 790.61 507.714 790.61 507.714 790.61 507.714 790.61 507.714 790.61 507.714 790.61 507.714 790.61 507.714 790.61 507.714 790.61 507.714 790.61 507.714 790.61 507.714 790.61 507.714 790.61 507.714 790.61 507.714 790.61 507.714 790.61 507.714 790.61 507.714 790.61 507.714 790.61 507.714 790.61 507.714 790.61 507.714 790.61 507.714 790.61 507.714 790.61 507.714 790.61 506.286 790.61 506.286 790.61 506.286 790.61 506.286 790.61 506.286 790.61 506.286 790.61 506.286 790.61 506.286 790.61 506.286 790.61 506.286 848.171 447.714 864 364.857 840.976 292" fill="#373737" fill-rule="evenodd"/><path d="M634.781 241C604.605 241 574.429 252.429 551.437 275.286 550 276.714 550 278.143 551.437 279.571 551.437 281 552.874 281 552.874 281 554.311 281 554.311 281 555.748 279.571 577.302 258.143 606.042 246.714 634.781 246.714 663.521 246.714 692.26 258.143 715.252 279.571 715.252 281 716.689 281 716.689 281 718.126 281 718.126 281 719.563 279.571 721 278.143 721 276.714 719.563 275.286 696.571 252.429 664.958 241 634.781 241" fill="#373737" fill-rule="evenodd"/><path d="M741.286 251C739.857 251 738.429 251 738.429 252.424 737 253.848 737 255.272 738.429 256.695 765.571 283.748 781.286 320.768 781.286 359.212 781.286 397.656 765.571 433.252 738.429 460.305 737 461.728 737 464.576 738.429 466 738.429 466 739.857 466 741.286 466 741.286 466 742.714 466 742.714 466 771.286 437.523 787 399.079 787 359.212 787 317.921 771.286 280.901 742.714 252.424 742.714 251 741.286 251 741.286 251" fill="#373737" fill-rule="evenodd"/><path d="M764.563 484C763.126 484 763.126 484 761.688 485.405 727.197 519.119 681.208 535.976 635.219 535.976 589.229 535.976 544.678 519.119 508.749 485.405 508.749 484 507.311 484 507.311 484 505.874 484 505.874 484 504.437 485.405 503 486.81 503 488.214 504.437 489.619 540.366 524.738 587.792 543 635.219 543 663.962 543 691.268 535.976 717.137 523.333 734.383 513.5 750.191 500.857 764.563 486.81 764.563 486.81 766 485.405 766 485.405 766 484 764.563 484 764.563 484" fill="#373737" fill-rule="evenodd"/><path d="M765.571 485C765.571 485 764.143 486.407 764.143 486.407 749.857 500.481 734.143 513.148 717 523 735.571 514.556 751.286 503.296 765.571 489.222 767 487.815 767 486.407 765.571 485 765.571 485 765.571 485 765.571 485" fill="#2D2D2D" fill-rule="evenodd"/><path d="M634.885 175C633.443 175 632 176.427 632 177.855 632 179.282 633.443 180.71 634.885 180.71 734.435 180.71 815.229 260.649 815.229 359.145 815.229 360.573 816.672 362 818.115 362 819.557 362 821 360.573 821 359.145 821 257.794 737.321 175 634.885 175" fill="#373737" fill-rule="evenodd"/><path d="M577.222 300.429C544 333.286 544 384.714 577.222 416.143 609 449 662.444 449 694.222 416.143 726 384.714 726 333.286 694.222 300.429 662.444 269 609 269 577.222 300.429ZM649.444 373.286C642.222 380.429 629.222 380.429 620.556 373.286 613.333 364.714 613.333 351.857 620.556 344.714 629.222 336.143 642.222 336.143 649.444 344.714 658.111 351.857 658.111 364.714 649.444 373.286Z" fill="#E53935" fill-rule="evenodd"/><path d="M478 212C478 212 478 212 478 212 478 212 478 212 478 212M479.333 212C479.333 212 479.333 212 479.333 212 479.333 212 479.333 212 479.333 212M479.333 210.667C479.333 210.667 479.333 210.667 479.333 210.667 479.333 210.667 479.333 210.667 479.333 210.667M479.333 210.667C479.333 210.667 479.333 210.667 479.333 210.667 479.333 210.667 479.333 210.667 479.333 210.667M479.333 210.667C479.333 210.667 479.333 210.667 479.333 210.667 479.333 210.667 479.333 210.667 479.333 210.667M480.667 210.667C479.333 210.667 479.333 210.667 479.333 210.667 479.333 210.667 479.333 210.667 480.667 210.667M480.667 210.667C480.667 210.667 480.667 210.667 480.667 210.667 480.667 210.667 480.667 210.667 480.667 210.667M480.667 209.333C480.667 209.333 480.667 210.667 480.667 210.667 480.667 210.667 480.667 209.333 480.667 209.333M480.667 209.333C480.667 209.333 480.667 209.333 480.667 209.333 480.667 209.333 480.667 209.333 480.667 209.333M480.667 209.333C480.667 209.333 480.667 209.333 480.667 209.333 480.667 209.333 480.667 209.333 480.667 209.333M480.667 209.333C480.667 209.333 480.667 209.333 480.667 209.333 480.667 209.333 480.667 209.333 480.667 209.333M482 209.333C480.667 209.333 480.667 209.333 480.667 209.333 480.667 209.333 480.667 209.333 482 209.333M482 209.333C482 209.333 482 209.333 482 209.333 482 209.333 482 209.333 482 209.333M482 208C482 208 482 208 482 209.333 482 208 482 208 482 208M482 208C482 208 482 208 482 208 482 208 482 208 482 208M482 208C482 208 482 208 482 208 482 208 482 208 482 208M482 208C482 208 482 208 482 208 482 208 482 208 482 208 482 208 482 208 482 208 482 208 482 208 482 208" fill="#F8F6F3" fill-rule="evenodd"/><path d="M635.238 145C580.451 145 525.665 166.429 482.413 207.857 482.413 207.857 482.413 207.857 482.413 207.857 482.413 207.857 482.413 207.857 482.413 207.857 482.413 207.857 482.413 207.857 482.413 207.857 482.413 207.857 482.413 207.857 482.413 207.857 482.413 207.857 482.413 207.857 482.413 207.857 482.413 207.857 482.413 207.857 482.413 207.857 482.413 207.857 482.413 207.857 482.413 207.857 482.413 207.857 482.413 207.857 482.413 209.286 482.413 209.286 482.413 209.286 482.413 209.286 482.413 209.286 482.413 209.286 482.413 209.286 482.413 209.286 482.413 209.286 482.413 209.286 480.971 209.286 480.971 209.286 480.971 209.286 480.971 209.286 480.971 209.286 480.971 209.286 480.971 209.286 480.971 209.286 480.971 209.286 480.971 209.286 480.971 209.286 480.971 209.286 480.971 209.286 480.971 209.286 480.971 209.286 480.971 209.286 480.971 209.286 480.971 209.286 480.971 209.286 480.971 209.286 480.971 209.286 480.971 209.286 480.971 209.286 480.971 209.286 480.971 209.286 480.971 210.714 480.971 210.714 480.971 210.714 480.971 210.714 480.971 210.714 480.971 210.714 480.971 210.714 480.971 210.714 480.971 210.714 480.971 210.714 480.971 210.714 479.529 210.714 479.529 210.714 479.529 210.714 479.529 210.714 479.529 210.714 479.529 210.714 479.529 210.714 479.529 210.714 479.529 210.714 479.529 210.714 479.529 210.714 479.529 210.714 479.529 210.714 479.529 210.714 479.529 210.714 479.529 210.714 479.529 210.714 479.529 210.714 479.529 210.714 479.529 210.714 479.529 210.714 479.529 210.714 479.529 212.143 479.529 212.143 479.529 212.143 479.529 212.143 479.529 212.143 479.529 212.143 479.529 212.143 478.087 212.143 478.087 212.143 478.087 212.143 478.087 212.143 423.301 270.714 406 353.571 430.51 425 424.743 357.857 450.694 286.429 506.922 230.714 557.383 180.714 622.262 155 685.699 155 691.466 155 697.233 155 703 155 681.374 149.286 658.306 145 635.238 145" fill="#ADABA6" fill-rule="evenodd"/><path d="M439 127.733C439 124.867 436.139 122 431.848 122 373.203 122 373.203 122 373.203 122 368.911 122 366.051 124.867 366.051 127.733 366.051 169.3 366.051 169.3 366.051 169.3 360.329 167.867 353.177 167.867 346.025 170.733 333.152 176.467 326 187.933 328.861 197.967 331.722 203.7 338.873 208 346.025 208 350.316 208 356.038 206.567 360.329 205.133 371.772 199.4 377.494 192.233 378.924 183.633 378.924 183.633 378.924 183.633 378.924 183.633 378.924 133.467 378.924 133.467 378.924 133.467 426.127 133.467 426.127 133.467 426.127 133.467 426.127 169.3 426.127 169.3 426.127 169.3 424.696 169.3 424.696 167.867 424.696 167.867 418.975 167.867 411.823 167.867 406.101 170.733 393.228 176.467 384.646 187.933 388.937 197.967 391.797 203.7 398.949 208 406.101 208 410.392 208 416.114 206.567 420.405 205.133 426.127 202.267 431.848 197.967 434.709 193.667 437.57 190.8 437.57 187.933 439 185.067 439 183.633 439 183.633 439 183.633L439 127.733Z" fill="#FFA000" fill-rule="evenodd"/><path d="M954 476.667C954 473.833 951.128 471 946.82 471 887.949 471 887.949 471 887.949 471 883.641 471 880.769 473.833 880.769 476.667 880.769 517.75 880.769 517.75 880.769 517.75 880.769 517.75 879.333 517.75 879.333 517.75 873.59 516.333 867.846 517.75 860.667 520.583 854.923 522 850.615 526.25 846.308 530.5 843.436 536.167 842 541.833 843.436 546.083 846.308 553.167 853.487 556 860.667 556 864.974 556 870.718 554.583 875.026 553.167 880.769 550.333 886.513 547.5 889.385 541.833 892.256 539 893.692 536.167 893.692 533.333 893.692 533.333 893.692 531.917 893.692 531.917 893.692 483.75 893.692 483.75 893.692 483.75 941.077 483.75 941.077 483.75 941.077 483.75 941.077 517.75 941.077 517.75 941.077 517.75 935.333 516.333 928.154 516.333 920.974 520.583 915.231 522 909.487 526.25 906.615 530.5 902.308 536.167 902.308 541.833 903.744 546.083 906.615 551.75 910.923 554.583 918.103 556 918.103 556 919.538 556 920.974 556 925.282 556 931.026 554.583 935.333 553.167 945.385 548.917 952.564 540.417 954 533.333 954 531.917 954 531.917 954 531.917L954 476.667Z" fill="#E53935" fill-rule="evenodd"/><path d="M762.566 597.318C761.132 594.439 758.264 593 755.396 593 731.019 601.636 731.019 601.636 731.019 601.636 729.585 601.636 726.717 604.515 726.717 607.394 726.717 649.136 726.717 649.136 726.717 649.136 720.981 647.697 715.245 647.697 708.076 650.576 700.906 653.455 696.604 657.773 693.736 662.091 689.434 666.409 688 672.167 690.868 677.924 692.302 682.242 696.604 686.561 703.774 686.561 705.208 688 706.641 688 708.076 688 712.377 688 716.679 686.561 720.981 685.121 732.453 679.364 739.623 672.167 739.623 663.53 739.623 663.53 739.623 663.53 739.623 663.53 739.623 611.712 739.623 611.712 739.623 611.712 758.264 605.955 758.264 605.955 758.264 605.955 762.566 604.515 764 600.197 762.566 597.318Z" fill="#FFA000" fill-rule="evenodd"/><path d="M714.547 36.3182C713.094 33.4394 710.189 32 707.283 32 682.585 40.6364 682.585 40.6364 682.585 40.6364 681.132 40.6364 678.226 43.5152 678.226 46.3939 678.226 88.1364 678.226 88.1364 678.226 88.1364 678.226 88.1364 676.774 88.1364 676.774 86.697 670.962 86.697 665.151 88.1364 659.34 89.5758 652.076 92.4545 647.717 96.7727 644.811 101.091 640.453 105.409 639 111.167 640.453 116.924 643.359 122.682 650.623 127 659.34 127 663.698 127 668.057 125.561 672.415 124.121 678.226 121.242 684.038 116.924 686.943 112.606 689.849 109.727 691.302 106.848 691.302 103.97 691.302 102.53 691.302 102.53 691.302 102.53 691.302 50.7121 691.302 50.7121 691.302 50.7121 710.189 44.9545 710.189 44.9545 710.189 44.9545 714.547 43.5152 716 39.197 714.547 36.3182Z" fill="#E53935" fill-rule="evenodd"/></g></svg>